<?xml version="1.0" encoding="UTF-8"?>
<svg id="Layer_1" data-name="Layer 1" xmlns="http://www.w3.org/2000/svg" version="1.1" viewBox="0 0 48 48">
  <defs>
    <style>
      .cls-1 {
        fill: #038c4f;
      }

      .cls-1, .cls-2 {
        stroke-width: 0px;
      }

      .cls-2 {
        fill: #c00;
      }
    </style>
  </defs>
  <path class="cls-2" d="M24.2,35.6c.5,0,1-.2,1.4-.6.4-.4.6-.8.6-1.4s-.2-1-.6-1.4c-.4-.4-.8-.6-1.4-.6s-1,.2-1.4.6-.6.8-.6,1.4.2,1,.6,1.4c.4.4.8.6,1.4.6Z"/>
  <path class="cls-2" d="M22.5,28.3h3c0-.9.1-1.7.3-2.4.2-.7.9-1.5,2-2.5,1-.9,1.8-1.7,2.2-2.6s.7-1.8.7-2.8c0-1.8-.6-3.2-1.7-4.3s-2.7-1.6-4.6-1.6-3.1.4-4.3,1.2-2.2,1.9-2.7,3.4l2.7,1c.4-.9.9-1.7,1.7-2.2s1.6-.8,2.6-.8,2.1.3,2.8.9,1.1,1.4,1.1,2.4-.2,1.4-.7,2.1-1.1,1.3-1.9,2c-1,.9-1.7,1.7-2.2,2.6s-.7,2-.7,3.4Z"/>
  <path class="cls-1" d="M24,44c-2.7,0-5.3-.5-7.8-1.6s-4.6-2.5-6.4-4.3-3.3-3.9-4.3-6.4-1.6-5-1.6-7.8.5-5.4,1.6-7.8,2.5-4.6,4.3-6.4,3.9-3.2,6.4-4.3,5-1.6,7.8-1.6,5.4.5,7.8,1.6,4.6,2.5,6.4,4.3,3.2,3.9,4.3,6.4,1.6,5,1.6,7.8-.5,5.3-1.6,7.8-2.5,4.6-4.3,6.4-3.9,3.3-6.4,4.3-5,1.6-7.8,1.6ZM24,41c4.7,0,8.8-1.7,12.1-5,3.3-3.3,5-7.3,5-12s-1.7-8.8-5-12.1-7.3-5-12.1-5-8.7,1.7-12,5c-3.3,3.3-5,7.3-5,12.1s1.7,8.7,5,12c3.3,3.3,7.3,5,12,5Z"/>
</svg>