<?xml version="1.0" encoding="UTF-8"?>
<svg id="Layer_1" data-name="Layer 1" xmlns="http://www.w3.org/2000/svg" version="1.1"
  viewBox="0 0 1191 1191">
  <defs>
    <style>
      .cls-1 {
      fill: #038c4f;
      }

      .cls-1, .cls-2, .cls-3 {
      stroke-width: 0px;
      }

      .cls-2 {
      fill: #c00;
      }

      .cls-3 {
      fill: #fff;
      }
    </style>
  </defs>
  <path class="cls-3"
    d="M461.9,107.9c57.9-.3,115.7,0,173.6,0,66.3.3,132.7.2,198.9,3.8,40.1.5,80.1,7.8,117.4,22.4,24.3,9.6,46.5,24.5,64.6,43.3,21.4,20.8,37.4,47,46.7,75.3,11.6,33.6,17.5,69.1,17.8,104.6,3.8,77.6,2.8,155.3,2.8,233-.5,82,.4,164-4.1,245.9-.5,38.7-7.7,77.3-21.6,113.5-18,45.4-53.6,83.4-97.7,104.4-14.3,6.9-29.6,11.7-45,15.8-22.5,5.9-45.6,9.4-68.8,10.4-26.3.8-52.7,2.2-79,2.6-55.7,1-111.3.6-167,.5-79-.5-158.1.4-237-3.7-10.7-.6-21.4-.6-32-1.6-32.6-2.8-64.8-10.2-95.2-22.6-29.7-12.2-55.2-33-75.5-57.7-9-11.1-16.7-23.2-22.9-36.1-5.5-11.5-9.7-23.5-13.4-35.7-6.7-22.4-11.1-45.5-12.9-68.9-1-12.3-.9-24.7-1.6-37-2.4-52.7-2.3-105.4-2.3-158.1,0-53.7.2-107.3.5-161,.2-48.7,1-97.4,3.7-146,.5-39.6,8-79.1,22.4-115.9,9.6-24.1,24.4-46.1,43-64.1,19.8-20.3,44.2-35.9,70.9-45.3,34.9-12.6,72-19.1,109.1-19.4,34.8-1.6,69.6-2.6,104.4-2.7ZM904,208.3c-24.2,3.3-45.9,20-55.3,42.5-7.1,16.3-7.7,35.4-1.7,52.1,5.1,14.6,15.2,27.4,28.2,35.9,11.6,7.6,25.4,11.7,39.3,11.6,15.3,0,30.5-5.1,42.7-14.3,12.4-9.3,21.7-22.8,25.9-37.7,4.7-16.5,3.2-34.6-4.2-50.1-6.8-14.3-18.5-26.3-32.8-33.3-12.9-6.5-27.8-8.8-42.1-6.7ZM569,291.3c-50.5,4.3-99.9,21.6-142.1,49.7-51.6,34.1-92.5,84.3-115.3,141.9-28.3,70.6-28.7,151.8-1.3,222.6,12.5,32.6,30.8,63.1,53.6,89.5,38.8,45.2,91,78.7,148.3,94.9,66.7,19,139.9,14.5,203.6-13,58.4-24.9,108.5-68.4,141.3-122.7,28.3-46.3,43.6-100.4,44.2-154.7,1-64.6-19.3-129.4-57.1-181.8-36.3-50.8-88.6-90.1-147.6-110.6-40.8-14.3-84.6-19.6-127.6-15.9Z" />
  <path class="cls-3"
    d="M577,398.3c35.8-3.4,72.5,3.1,104.9,18.8,33.7,16.2,62.5,42.1,82.2,73.8,17.7,28.3,28.1,61.2,29.7,94.6,1.8,33.7-5.2,67.9-20.2,98.2-13.8,27.9-34.2,52.4-59.1,71-22.8,17.1-49.3,29.2-77.2,35.1-37.8,8.1-77.9,4.9-113.8-9.2-31.3-12.2-59.4-32.6-80.7-58.5-20.7-24.9-35.1-55-41.5-86.7-7.7-37.8-4.1-77.8,10.3-113.6,13.8-34.4,37.5-64.8,67.6-86.6,28.5-20.8,62.7-33.7,97.8-37Z" />
  <path class="cls-1"
    d="M475.2.5h210.8l-6.8.9c54.4-.6,108.9.7,163.3,3.6,41.2.9,82.2,7.7,121.5,20,27,8.3,53.1,19.7,76.8,35,25.1,15.9,47.3,36,66.9,58.3,23.3,26.8,41.6,57.8,53.7,91.2,13.7,37.3,22.2,76.5,25.3,116.1,1.4,18.3,1.5,36.6,2.4,54.9,1.4,38.5,2,76.9,2.3,115.4v144.2l-.8-6.7c.5,26.7-.2,53.5-.3,80.2-.3,42.3-1.3,84.7-3.6,127-1.1,53.4-11.5,106.8-32,156.3-25.3,59.2-70,109.9-125.6,142.4-25.6,15.2-53.6,25.9-82.3,33.6-22.1,6-44.6,10.3-67.3,12.8-19.6,2.3-39.3,2.4-58.9,3.3-37.7,1.6-75.5,2.1-113.2,2.7h-122.1c-21.9-.8-43.9-.4-65.8-.8-56.2-.5-112.5-.8-168.6-4-40.2-.8-80.4-7-118.9-18.8-27.7-8.3-54.6-19.4-79-34.9-26-16.2-49-36.8-69.2-59.8-20.6-23.7-37.3-50.7-49.3-79.8-19.9-49.4-30.2-102.6-31-155.9-2.1-43-2.7-86.1-3-129.2v-176.1c.8-17.6.4-35.2.7-52.7.3-43,1.3-86,3.7-128.9.8-37.4,6.2-74.7,16.4-110.7,6-21.1,13.3-42,23.1-61.7,14.5-29.2,33.9-55.9,57.2-78.7,20.1-20.4,43.2-37.9,68.4-51.6,22.8-12.6,47.5-21.5,72.5-28.5,35.5-9.9,72.2-15.2,109-15.9,26.3-1.1,52.7-2.2,79-2.5,14.9-.3,29.8-.2,44.7-.5ZM461.9,107.9c-34.8.2-69.6,1.2-104.4,2.7-37.1.3-74.2,6.8-109.1,19.4-26.7,9.4-51.2,25-70.9,45.3-18.6,18-33.4,40-43,64.1-14.4,36.9-21.9,76.4-22.4,115.9-2.6,48.6-3.4,97.3-3.7,146-.3,53.7-.4,107.3-.5,161,0,52.7,0,105.4,2.3,158.1.7,12.3.6,24.7,1.6,37,1.8,23.3,6.1,46.5,12.9,68.9,3.7,12.2,7.8,24.2,13.4,35.7,6.2,12.9,13.9,25,22.9,36.1,20.3,24.7,45.8,45.4,75.5,57.7,30.3,12.3,62.6,19.8,95.2,22.6,10.7,1,21.4.9,32,1.6,78.9,4,158,3.2,237,3.7,55.7,0,111.3.4,167-.5,26.3-.4,52.7-1.8,79-2.6,23.2-1,46.3-4.5,68.8-10.4,15.3-4.1,30.6-8.9,45-15.8,44.1-21,79.7-59,97.7-104.4,13.9-36.1,21.1-74.8,21.6-113.5,4.4-81.9,3.6-163.9,4.1-245.9,0-77.7,1-155.4-2.8-233-.3-35.5-6.3-71-17.8-104.6-9.3-28.3-25.3-54.5-46.7-75.3-18.1-18.8-40.3-33.7-64.6-43.3-37.3-14.6-77.3-22-117.4-22.4-66.2-3.6-132.6-3.5-198.9-3.8-57.9-.2-115.7-.4-173.6,0Z" />
  <path class="cls-2"
    d="M569,291.3c43-3.7,86.9,1.6,127.6,15.9,59,20.5,111.2,59.8,147.6,110.6,37.8,52.4,58.2,117.1,57.1,181.8-.5,54.3-15.9,108.3-44.2,154.7-32.8,54.3-82.9,97.9-141.3,122.7-63.7,27.4-136.9,31.9-203.6,13-57.4-16.1-109.6-49.7-148.3-94.9-22.8-26.5-41-56.9-53.6-89.5-27.4-70.9-27-152.1,1.3-222.6,22.8-57.6,63.7-107.7,115.3-141.9,42.2-28.1,91.6-45.4,142.1-49.7ZM577,398.3c-35.1,3.2-69.3,16.2-97.8,37-30,21.8-53.8,52.1-67.6,86.6-14.4,35.8-18,75.8-10.3,113.6,6.4,31.7,20.8,61.8,41.5,86.7,21.4,25.9,49.4,46.3,80.7,58.5,36,14.1,76.1,17.3,113.8,9.2,27.9-5.9,54.4-18,77.2-35.1,24.9-18.6,45.3-43.1,59.1-71,15-30.3,22-64.5,20.2-98.2-1.7-33.4-12-66.2-29.7-94.6-19.7-31.7-48.6-57.6-82.2-73.8-32.4-15.7-69.1-22.1-104.9-18.8Z" />
  <path class="cls-2"
    d="M904,208.3c14.3-2.1,29.2.2,42.1,6.7,14.2,7,26,19,32.8,33.3,7.4,15.5,8.9,33.6,4.2,50.1-4.2,15-13.5,28.4-25.9,37.7-12.2,9.2-27.4,14.3-42.7,14.3-13.8,0-27.7-4-39.3-11.6-13-8.5-23.1-21.2-28.2-35.9-6-16.8-5.4-35.8,1.7-52.1,9.5-22.5,31.2-39.2,55.3-42.5Z" />
</svg>